<?xml version="1.0" encoding="iso-8859-1"?>
<!-- Generator: Adobe Illustrator 18.0.0, SVG Export Plug-In . SVG Version: 6.00 Build 0)  -->
<!DOCTYPE svg PUBLIC "-//W3C//DTD SVG 1.1//EN" "http://www.w3.org/Graphics/SVG/1.1/DTD/svg11.dtd">
<svg version="1.1" id="Capa_1" xmlns="http://www.w3.org/2000/svg" xmlns:xlink="http://www.w3.org/1999/xlink" x="0px" y="0px"
	 viewBox="0 0 403.926 403.926" style="enable-background:new 0 0 403.926 403.926;" xml:space="preserve">
		<path style="fill:#73D0F4;" d="M287.484,39.213c-28.49,0-57.75,13.659-76.359,35.648c-2.281,2.694-5.631,4.248-9.16,4.248
			c-0.002,0-0.002,0-0.002,0c-3.529-0.001-6.881-1.555-9.16-4.249c-18.6-21.988-47.865-35.647-76.371-35.647
			C64.6,39.213,24,79.818,24,131.655c0,65.427,57.559,119.545,159.293,209.567c0.176,0.155,0.348,0.316,0.514,0.482l18.156,18.074
			l18.152-18.074c0.168-0.166,0.34-0.327,0.516-0.483c101.736-90.008,159.295-144.119,159.295-209.566
			C379.926,79.818,339.32,39.213,287.484,39.213z M123.584,81.611c-32.178,0-57.383,25.209-57.383,57.392c0,6.628-5.373,12-12,12
			c-6.627,0-12-5.372-12-12c0-45.64,35.748-81.392,81.383-81.392c6.627,0,12,5.373,12,12
			C135.584,76.239,130.211,81.611,123.584,81.611z"/>
		<path style="fill:#3D6889;" d="M287.484,15.213c-31.475,0-62.566,12.689-85.52,34.454c-22.945-21.764-54.045-34.454-85.533-34.454
			C51.143,15.213,0,66.361,0,131.655c0,36.542,15.049,71.882,47.359,111.216c28.187,34.316,67.43,69.778,119.766,116.091
			l26.373,26.255c2.342,2.33,5.404,3.496,8.467,3.496s6.125-1.166,8.467-3.497l26.367-26.255
			c52.332-46.301,91.57-81.756,119.773-116.09c32.307-39.332,47.354-74.672,47.354-111.216
			C403.926,66.361,352.779,15.213,287.484,15.213z M220.631,341.221c-0.176,0.156-0.348,0.317-0.516,0.483l-18.152,18.074
			l-18.156-18.074c-0.166-0.166-0.338-0.327-0.514-0.482C81.559,251.2,24,197.081,24,131.655c0-51.837,40.6-92.441,92.432-92.441
			c28.506,0,57.771,13.659,76.371,35.647c2.279,2.694,5.631,4.248,9.16,4.249c0,0,0,0,0.002,0c3.529,0,6.879-1.554,9.16-4.248
			c18.609-21.989,47.869-35.648,76.359-35.648c51.836,0,92.441,40.604,92.441,92.441
			C379.926,197.102,322.367,251.213,220.631,341.221z"/>
		<path style="fill:#3D6889;" d="M123.584,57.611c-45.635,0-81.383,35.752-81.383,81.392c0,6.628,5.373,12,12,12
			c6.627,0,12-5.372,12-12c0-32.183,25.205-57.392,57.383-57.392c6.627,0,12-5.372,12-12
			C135.584,62.984,130.211,57.611,123.584,57.611z"/>
</svg>
